<svg width="1em" height="1em" viewBox="0 0 20 20" xmlns="http://www.w3.org/2000/svg" xmlns:xlink="http://www.w3.org/1999/xlink" role="img"><defs><path d="M9 1a2 2 0 012 2v2.268A1.99 1.99 0 0112 5h6a2 2 0 012 2v11a2 2 0 01-2 2h-6a1.995 1.995 0 01-1.5-.678A1.992 1.992 0 019 20H2a2 2 0 01-2-2V3a2 2 0 012-2h7zm0 1H2a1 1 0 00-1 1v15a1 1 0 001 1h.5v-2.222a1 1 0 011-1h4a1 1 0 011 1V19H9a1 1 0 001-1V3a1 1 0 00-1-1zM7.5 16.778h-4V19h4v-2.222zM18 6h-6a1 1 0 00-1 1v11a1 1 0 001 1h.222v-2.286a1 1 0 011-1h3.556a1 1 0 011 1V19H18a1 1 0 001-1V7a1 1 0 00-1-1zm-1.222 10.714h-3.556V19h3.556v-2.286zM4 11.556a1 1 0 011 1v1.166a1 1 0 01-1 1H3a1 1 0 01-1-1v-1.166a1 1 0 011-1h1zm4 0a1 1 0 011 1v1.166a1 1 0 01-1 1H7a1 1 0 01-1-1v-1.166a1 1 0 011-1h1zm8.778-.127a1 1 0 011 1v1.214a1 1 0 01-1 1h-3.556a1 1 0 01-1-1v-1.214a1 1 0 011-1h3.556zM4 12.556H3v1.166h1v-1.166zm4 0H7v1.166h1v-1.166zm8.778-.127h-3.556v1.214h3.556v-1.214zM4 7.333a1 1 0 011 1V9.5a1 1 0 01-1 1H3a1 1 0 01-1-1V8.333a1 1 0 011-1h1zm4 0a1 1 0 011 1V9.5a1 1 0 01-1 1H7a1 1 0 01-1-1V8.333a1 1 0 011-1h1zm8.778-.19a1 1 0 011 1v1.214a1 1 0 01-1 1h-3.556a1 1 0 01-1-1V8.143a1 1 0 011-1h3.556zM4 8.333H3V9.5h1V8.333zm4 0H7V9.5h1V8.333zm8.778-.19h-3.556v1.214h3.556V8.143zM4 3.11a1 1 0 011 1v1.167a1 1 0 01-1 1H3a1 1 0 01-1-1V4.11a1 1 0 011-1h1zm4 0a1 1 0 011 1v1.167a1 1 0 01-1 1H7a1 1 0 01-1-1V4.11a1 1 0 011-1h1zm-4 1H3v1.167h1V4.11zm4 0H7v1.167h1V4.11z" id="appartment-lined_svg__a"></path></defs><use fill="currentColor" xlink:href="#appartment-lined_svg__a" fill-rule="evenodd"></use></svg>