<svg width="1em" height="1em" viewBox="0 0 20 20" xmlns="http://www.w3.org/2000/svg" xmlns:xlink="http://www.w3.org/1999/xlink" role="img"><defs><path d="M10.413 2.152l8.463 8.36a.5.5 0 11-.703.712l-.865-.855v4.67A.498.498 0 0117.5 15h.5v-.5a.5.5 0 111 0v.5h.5a.5.5 0 110 1H19v1h.5a.5.5 0 110 1h-2a.498.498 0 01-.335-.129.49.49 0 01-.356.152h-5.161a.5.5 0 01-.5-.5v-3.5H8.97v3.5a.5.5 0 01-.5.5H3.31a.5.5 0 01-.415-.22A.489.489 0 012.5 18h-2a.5.5 0 110-1H1v-1H.5a.5.5 0 110-1H1v-.5a.5.5 0 111 0v.5h.5c.117 0 .225.04.31.108l-.001-4.733-.857.849a.5.5 0 01-.703-.711l8.461-8.36a.5.5 0 01.703 0zM2.5 16H2v1h.5c.117 0 .225.04.31.108v-1.216A.498.498 0 012.5 16zm14.808-.038v1.076A.498.498 0 0117.5 17h.5v-1h-.5a.498.498 0 01-.192-.038zm-7.246-12.75L3.809 9.386v7.636h4.162v-3.5a.5.5 0 01.5-.5h3.177a.5.5 0 01.5.5v3.5h4.16v-7.64L10.062 3.21zM7 10v1h1v-1H7zm0-1h1a1 1 0 011 1v1a1 1 0 01-1 1H7a1 1 0 01-1-1v-1a1 1 0 011-1zm5 1v1h1v-1h-1zm0-1h1a1 1 0 011 1v1a1 1 0 01-1 1h-1a1 1 0 01-1-1v-1a1 1 0 011-1z" id="house-lined_svg__a"></path></defs><use fill="currentColor" xlink:href="#house-lined_svg__a" fill-rule="evenodd"></use></svg>