<svg width="1em" height="1em" viewBox="0 0 20 20" xmlns="http://www.w3.org/2000/svg" xmlns:xlink="http://www.w3.org/1999/xlink" role="img"><defs><path d="M6 1a1 1 0 011 1v1h6.94l.076-.074 5.878 7.015h-.96v8.073a1 1 0 01-1 1H7.981V19H.463a.413.413 0 01-.313-.142A.5.5 0 010 18.5v-15a.5.5 0 01.624-.484A.697.697 0 01.771 3L4 2.999V2a1 1 0 011-1h1zm7.951 3.406l-4.97 4.985v8.623h3.02L12 18v-4a1 1 0 011-1h1a1 1 0 011 1v4l-.001.013 2.935.001V9.159l-3.983-4.753zM4 3.953H1V8h6.452a.5.5 0 010 1H1v9h2v-2a1 1 0 011-1h1a1 1 0 011 1v2h1.981V9.94h-.96L12.944 4H7v1a1 1 0 01-1 1H5a1 1 0 01-1-1V3.953zM14 14h-1v4h1v-4zm-9 2H4v2h1v-2zm0-5a1 1 0 011 1v1a1 1 0 01-1 1H4a1 1 0 01-1-1v-1a1 1 0 011-1h1zm0 1H4v1h1v-1zm7-3a1 1 0 011 1v1a1 1 0 01-1 1h-1a1 1 0 01-1-1v-1a1 1 0 011-1h1zm4 0a1 1 0 011 1v1a1 1 0 01-1 1h-1a1 1 0 01-1-1v-1a1 1 0 011-1h1zm-4 1h-1v1h1v-1zm4 0h-1v1h1v-1zM6 2H5v3h1V2z" id="private-town-house-lined_svg__a"></path></defs><use fill="currentColor" xlink:href="#private-town-house-lined_svg__a" fill-rule="evenodd"></use></svg>