<svg width="1em" height="1em" viewBox="0 0 20 20" xmlns="http://www.w3.org/2000/svg" xmlns:xlink="http://www.w3.org/1999/xlink" role="img"><defs><path d="M17 0a2 2 0 012 2v16a2 2 0 01-2 2H3a2 2 0 01-2-2V2a2 2 0 012-2h14zm0 1H3a1 1 0 00-1 1v16a1 1 0 001 1h5v-4a1 1 0 011-1h2a1 1 0 011 1v4h5a1 1 0 001-1V2a1 1 0 00-1-1zm-6 14H9v4h2v-4zM7 9a1 1 0 011 1v3a1 1 0 01-1 1H4a1 1 0 01-1-1v-3a1 1 0 011-1h3zm9 0a1 1 0 011 1v3a1 1 0 01-1 1h-3a1 1 0 01-1-1v-3a1 1 0 011-1h3zm-9 3H3.999L4 13h3v-1zm9 0h-3v1h3v-1zm-9-2H4l-.001 1H7v-1zm9 0h-3v1h3v-1zM7 2a1 1 0 011 1v3a1 1 0 01-1 1H4a1 1 0 01-1-1V3a1 1 0 011-1h3zm9 0a1 1 0 011 1v3a1 1 0 01-1 1h-3a1 1 0 01-1-1V3a1 1 0 011-1h3zM7 5H3.999L4 6h3V5zm9 0h-3v1h3V5zm0-2h-3v1h3V3zM7 3H4l-.001 1H7V3z" id="building-lined_svg__a"></path></defs><use fill="currentColor" xlink:href="#building-lined_svg__a" fill-rule="evenodd"></use></svg>