<svg width="1em" height="1em" viewBox="0 0 20 20" xmlns="http://www.w3.org/2000/svg" xmlns:xlink="http://www.w3.org/1999/xlink" role="img"><defs><path d="M6.435 16.777v.8h9.904l.07.006.001-.775 2.5 1.25-2.5 1.25v-.736a.504.504 0 01-.071.005H6.434l.001.7-2.5-1.25 2.5-1.25zM12.5 1a.5.5 0 01.5.5V6h5.5a.5.5 0 01.5.5v9a.5.5 0 01-.5.5h-14a.5.5 0 01-.5-.5v-14a.5.5 0 01.5-.5h8zm-11.024.024l1.25 2.5h-.83v9.955h.874l-1.25 2.5-1.25-2.5h.625V3.524H.226l1.25-2.5zM12 12H8v3h4v-3zm-5 0H5.025v3H7v-3zM18 7h-5v8h5V7zm-5.975-4.682h-7V11H12L12 6.5a.5.5 0 01.024-.154l.001-4.028z" id="area-lined_svg__a"></path></defs><use fill="currentColor" xlink:href="#area-lined_svg__a" fill-rule="evenodd"></use></svg>