<svg width="1em" height="1em" viewBox="0 0 20 20" xmlns="http://www.w3.org/2000/svg" xmlns:xlink="http://www.w3.org/1999/xlink" role="img"><defs><path d="M10.125 1l.074.005.048.002c1.073.057 2.145.489 3.218 1.295a2 2 0 01.798 1.599v7.883h4.141a.625.625 0 010 1.25h-.6c.159.287.249.616.249.966v2a2 2 0 01-2 2H3.947a2 2 0 01-2-2v-2c0-.35.09-.68.249-.966h-.542a.625.625 0 110-1.25h4.082V3.901a2 2 0 01.8-1.6C7.69 1.435 8.845 1 10 1h.125zm-6 12.25h-.178a.75.75 0 00-.75.75v2c0 .414.336.75.75.75l.179.001A.622.622 0 014 16.375v-2.75c0-.14.047-.27.125-.375zm11.928 0h-.428a.622.622 0 01.125.375v2.75a.622.622 0 01-.126.376l.429-.001a.75.75 0 00.75-.75v-2a.75.75 0 00-.75-.75zm-4.04 0h-1.625c.07.099.112.22.112.35v2.8c0 .13-.042.252-.113.35h1.626a.597.597 0 01-.113-.35v-2.8c0-.13.042-.251.112-.35zm2.612 0h-1.637c.07.099.112.22.112.35v2.8c0 .13-.042.252-.113.35l1.639.001a.622.622 0 01-.126-.376v-2.75c0-.14.047-.27.125-.375zm-5.213 0H7.725a.622.622 0 01.125.375v2.75a.622.622 0 01-.126.376h1.689A.597.597 0 019.3 16.4v-2.8c0-.13.042-.251.112-.35zm-2.687 0h-1.6a.622.622 0 01.125.375v2.75a.622.622 0 01-.126.376h1.602a.622.622 0 01-.126-.376v-2.75c0-.14.047-.27.125-.375zM9.5 9.92H6.986v1.829H9.5V9.921zm3.514 0h-2.264v1.829h2.264V9.921zM9.499 6.447H6.986V8.5h2.513V6.447zm3.514 0h-2.264V8.5h2.264V6.447zM7.286 3.301a.75.75 0 00-.3.6v1.125h2.513V2.287c-.71.106-1.445.437-2.213 1.014zm3.463-.968v2.693h2.264V3.901a.75.75 0 00-.3-.6c-.678-.51-1.33-.828-1.964-.968z" id="balcony-regular_svg__a"></path></defs><use fill="currentColor" xlink:href="#balcony-regular_svg__a" fill-rule="evenodd"></use></svg>