<?xml version="1.0" encoding="UTF-8"?>
<!DOCTYPE svg PUBLIC "-//W3C//DTD SVG 1.1//EN" "http://www.w3.org/Graphics/SVG/1.1/DTD/svg11.dtd">
<svg xmlns="http://www.w3.org/2000/svg" version="1.1" width="512px" height="512px" style="shape-rendering:geometricPrecision; text-rendering:geometricPrecision; image-rendering:optimizeQuality; fill-rule:evenodd; clip-rule:evenodd" xmlns:xlink="http://www.w3.org/1999/xlink">
<g><path style="opacity:0.986" fill="#000000" d="M 403.5,79.5 C 422.17,79.3334 440.836,79.5001 459.5,80C 461.333,80.5 462.5,81.6667 463,83.5C 467.148,107.351 469.815,131.351 471,155.5C 470.5,157.333 469.333,158.5 467.5,159C 458.173,159.5 448.839,159.666 439.5,159.5C 439.5,170.167 439.5,180.833 439.5,191.5C 459.503,191.333 479.503,191.5 499.5,192C 501.333,192.5 502.5,193.667 503,195.5C 503.667,259.5 503.667,323.5 503,387.5C 502.5,389.333 501.333,390.5 499.5,391C 474.169,391.5 448.836,391.667 423.5,391.5C 423.961,404.266 423.461,416.933 422,429.5C 421.25,430.126 420.416,430.626 419.5,431C 408.833,431.667 398.167,431.667 387.5,431C 385.185,429.891 383.685,428.057 383,425.5C 378.191,411.574 373.691,397.574 369.5,383.5C 266.833,383.5 164.167,383.5 61.5,383.5C 57.0608,399.318 51.7275,414.818 45.5,430C 39.6047,431.124 33.6047,431.624 27.5,431.5C 22.1667,431.333 16.8333,431.167 11.5,431C 10.5838,430.626 9.75044,430.126 9,429.5C 7.34948,399.586 7.01614,369.586 8,339.5C 9.53877,336.479 12.0388,335.146 15.5,335.5C 15.0553,317.777 15.5553,300.111 17,282.5C 22.2702,268.229 32.2702,259.229 47,255.5C 47.0274,221.453 47.694,187.453 49,153.5C 55.1076,135.725 67.2743,124.559 85.5,120C 172.167,119.333 258.833,119.333 345.5,120C 365.333,125.167 377.833,137.667 383,157.5C 383.5,168.828 383.667,180.162 383.5,191.5C 396.833,191.5 410.167,191.5 423.5,191.5C 423.5,180.833 423.5,170.167 423.5,159.5C 414.161,159.666 404.827,159.5 395.5,159C 393.667,158.5 392.5,157.333 392,155.5C 393.259,132.425 395.592,109.425 399,86.5C 399.53,83.415 401.03,81.0817 403.5,79.5 Z M 415.5,95.5 C 426.415,95.1797 437.248,95.513 448,96.5C 450.081,112.146 451.914,127.813 453.5,143.5C 438.833,143.5 424.167,143.5 409.5,143.5C 411.013,127.397 413.013,111.397 415.5,95.5 Z M 95.5,135.5 C 175.501,135.333 255.501,135.5 335.5,136C 351.546,136.93 361.713,145.097 366,160.5C 367.447,192.135 367.947,223.801 367.5,255.5C 361.824,255.666 356.157,255.499 350.5,255C 351.657,239.574 351.824,224.074 351,208.5C 348.167,200.333 342.667,194.833 334.5,192C 305.833,191.333 277.167,191.333 248.5,192C 240.333,194.833 234.833,200.333 232,208.5C 231.176,224.074 231.343,239.574 232.5,255C 221.167,255.667 209.833,255.667 198.5,255C 199.657,239.574 199.824,224.074 199,208.5C 196.167,200.333 190.667,194.833 182.5,192C 153.833,191.333 125.167,191.333 96.5,192C 88.3333,194.833 82.8333,200.333 80,208.5C 79.1762,224.074 79.3429,239.574 80.5,255C 74.8431,255.499 69.1764,255.666 63.5,255.5C 63.3334,226.165 63.5,196.831 64,167.5C 66.0109,148.323 76.5109,137.657 95.5,135.5 Z M 103.5,207.5 C 127.502,207.333 151.502,207.5 175.5,208C 180,208.5 182.5,211 183,215.5C 183.667,226.167 183.667,236.833 183,247.5C 182.5,252 180,254.5 175.5,255C 151.5,255.667 127.5,255.667 103.5,255C 99,254.5 96.5,252 96,247.5C 95.3333,236.833 95.3333,226.167 96,215.5C 96.6804,210.989 99.1804,208.323 103.5,207.5 Z M 255.5,207.5 C 279.502,207.333 303.502,207.5 327.5,208C 332,208.5 334.5,211 335,215.5C 335.667,226.167 335.667,236.833 335,247.5C 334.5,252 332,254.5 327.5,255C 303.5,255.667 279.5,255.667 255.5,255C 251,254.5 248.5,252 248,247.5C 247.333,236.833 247.333,226.167 248,215.5C 248.68,210.989 251.18,208.323 255.5,207.5 Z M 383.5,207.5 C 418.167,207.5 452.833,207.5 487.5,207.5C 487.5,223.5 487.5,239.5 487.5,255.5C 452.833,255.5 418.167,255.5 383.5,255.5C 383.5,239.5 383.5,223.5 383.5,207.5 Z M 55.5,271.5 C 164.526,271.015 273.526,271.515 382.5,273C 390.428,275.927 395.594,281.427 398,289.5C 399.399,304.79 399.899,320.123 399.5,335.5C 276.833,335.5 154.167,335.5 31.5,335.5C 31.3334,322.163 31.5001,308.829 32,295.5C 33.6947,281.307 41.5281,273.307 55.5,271.5 Z M 408.5,272.5 C 434.661,271.502 460.995,271.169 487.5,271.5C 487.5,306.167 487.5,340.833 487.5,375.5C 466.167,375.5 444.833,375.5 423.5,375.5C 423.667,363.495 423.5,351.495 423,339.5C 421.461,336.479 418.961,335.146 415.5,335.5C 415.667,319.163 415.5,302.83 415,286.5C 413.87,281.24 411.703,276.573 408.5,272.5 Z M 23.5,351.5 C 151.5,351.5 279.5,351.5 407.5,351.5C 407.5,356.833 407.5,362.167 407.5,367.5C 279.5,367.5 151.5,367.5 23.5,367.5C 23.5,362.167 23.5,356.833 23.5,351.5 Z M 23.5,383.5 C 30.1998,383.17 36.8665,383.503 43.5,384.5C 39.7589,394.723 36.4256,405.056 33.5,415.5C 30.1667,415.5 26.8333,415.5 23.5,415.5C 23.5,404.833 23.5,394.167 23.5,383.5 Z M 387.5,383.5 C 394.167,383.5 400.833,383.5 407.5,383.5C 407.5,394.167 407.5,404.833 407.5,415.5C 404.167,415.5 400.833,415.5 397.5,415.5C 394.369,404.773 391.036,394.106 387.5,383.5 Z"/></g>
<g><path style="opacity:1" fill="#000000" d="M 423.5,223.5 C 428.833,223.5 434.167,223.5 439.5,223.5C 439.5,228.833 439.5,234.167 439.5,239.5C 434.167,239.5 428.833,239.5 423.5,239.5C 423.5,234.167 423.5,228.833 423.5,223.5 Z"/></g>
</svg>
